<svg xmlns="http://www.w3.org/2000/svg" viewBox="0 0 900 1200"><defs><linearGradient id="m" x1="0" y1="0" x2="1" y2="1"><stop stop-color="#eef7fb"/><stop offset=".23" stop-color="#495762"/><stop offset=".53" stop-color="#dbe7ed"/><stop offset=".78" stop-color="#151d24"/><stop offset="1" stop-color="#aebdc6"/></linearGradient><filter id="g"><feGaussianBlur stdDeviation="8" result="b"/><feMerge><feMergeNode in="b"/><feMergeNode in="SourceGraphic"/></feMerge></filter><style>.n{font:300 88px Arial,sans-serif;fill:url(#m)}.l{font:500 18px Arial,sans-serif;fill:#a9bac4;letter-spacing:2px}</style></defs><ellipse cx="500" cy="430" rx="380" ry="400" fill="#42cfff" opacity=".05"/><g transform="translate(18 90)"><rect x="260" y="86" width="510" height="344" rx="28" fill="#02070b" stroke="#456879" stroke-width="4"/><rect x="294" y="120" width="442" height="230" rx="18" fill="#071119" stroke="#203a47"/><rect x="330" y="160" width="110" height="70" rx="12" fill="#0b1821" stroke="#315161"/><rect x="460" y="160" width="110" height="70" rx="12" fill="#0b1821" stroke="#315161"/><rect x="590" y="160" width="110" height="70" rx="12" fill="#0b1821" stroke="#315161"/><rect x="330" y="260" width="370" height="12" rx="6" fill="#17303d"/><rect x="330" y="294" width="315" height="12" rx="6" fill="#132934"/><path d="M476 430H554L590 490H440Z" fill="url(#m)" opacity=".78"/><path d="M370 500H660" stroke="url(#m)" stroke-width="18" stroke-linecap="round"/><g transform="translate(62 172)"><rect x="0" y="40" width="182" height="168" rx="28" fill="#03090d" stroke="#557584" stroke-width="4"/><circle cx="91" cy="124" r="48" fill="#06131b" stroke="url(#m)" stroke-width="15"/><circle cx="91" cy="124" r="19" fill="#0a2330" stroke="#62d8ff" stroke-width="4"/><rect x="34" y="0" width="112" height="52" rx="16" fill="url(#m)" opacity=".82"/></g><path d="M210 530C300 500 344 462 400 438S504 398 562 360 652 300 724 250" fill="none" stroke="#76e1ff" stroke-width="6" stroke-linecap="round" filter="url(#g)"/></g><g transform="translate(70 785)"><text class="n" x="0" y="0">×3</text><text class="l" x="4" y="38">ЗАЯВКИ</text><text class="n" x="315" y="0">×5</text><text class="l" x="319" y="38">ПРОИЗВОДСТВО КОНТЕНТА</text><text class="n" x="0" y="190">+16%</text><text class="l" x="4" y="228">КОНВЕРСИЯ САЙТА</text></g></svg>