<svg xmlns="http://www.w3.org/2000/svg" viewBox="0 0 900 1200"><defs><linearGradient id="m" x1="0" y1="0" x2="1" y2="1"><stop stop-color="#f2f9fc"/><stop offset=".2" stop-color="#4d5963"/><stop offset=".5" stop-color="#dce8ee"/><stop offset=".72" stop-color="#172029"/><stop offset="1" stop-color="#b4c2ca"/></linearGradient><linearGradient id="s" x1="0" y1="0" x2="0" y2="1"><stop stop-color="#0b1720"/><stop offset="1" stop-color="#02070b"/></linearGradient><filter id="g" x="-80%" y="-80%" width="260%" height="260%"><feGaussianBlur stdDeviation="10" result="b"/><feMerge><feMergeNode in="b"/><feMergeNode in="SourceGraphic"/></feMerge></filter><style>.n{font:300 78px Arial,sans-serif;fill:url(#m)}.l{font:500 17px Arial,sans-serif;fill:#a9bac4;letter-spacing:2px}</style></defs><ellipse cx="500" cy="480" rx="360" ry="420" fill="#3dc8ff" opacity=".05"/><g transform="translate(30 80)"><path d="M160 90Q160 50 200 50H700Q740 50 740 90V545H160Z" fill="url(#s)" stroke="url(#m)" stroke-width="8"/><rect x="198" y="92" width="504" height="405" rx="20" fill="#02070b" stroke="#203947" stroke-width="2"/><g opacity=".25" stroke="#4b778e"><path d="M225 165H675M225 235H675M225 305H675M225 375H675M225 445H675"/><path d="M285 120V470M370 120V470M455 120V470M540 120V470M625 120V470"/></g><path d="M238 430C285 410 325 372 365 380S430 340 472 292 535 305 580 248 635 216 680 145" fill="none" stroke="#76e1ff" stroke-width="7" stroke-linecap="round" filter="url(#g)"/><g fill="#dff9ff" filter="url(#g)"><circle cx="238" cy="430" r="7"/><circle cx="365" cy="380" r="7"/><circle cx="472" cy="292" r="7"/><circle cx="580" cy="248" r="7"/><circle cx="680" cy="145" r="7"/></g><path d="M95 545H805L865 618Q874 630 854 636H46Q27 630 36 618Z" fill="url(#m)" opacity=".86"/><rect x="370" y="580" width="160" height="14" rx="7" fill="#111a21"/></g><g transform="translate(70 785)"><text class="n" x="0" y="0">×4,7</text><text class="l" x="4" y="35">ОБОРОТ НАПРАВЛЕНИЯ</text><text class="n" x="455" y="0">×8,3</text><text class="l" x="459" y="35">МАРЖИНАЛЬНАЯ ПРИБЫЛЬ</text><text class="n" x="0" y="175">8</text><text class="l" x="4" y="210">ПРОЕКТНЫХ ЗАПУСКОВ</text><text class="n" x="440" y="175" style="font-size:58px">40+ млн ₽</text><text class="l" x="444" y="210">КОММЕРЧЕСКИХ ПРЕДЛОЖЕНИЙ</text></g></svg>